<svg id="svg" version="1.1" xmlns="http://www.w3.org/2000/svg" xmlns:xlink="http://www.w3.org/1999/xlink" width="400" height="400" viewBox="0, 0, 400,400"><g id="svgg"><path id="path0" d="M199.800 36.000 C 199.664 36.220,199.203 36.400,198.776 36.400 C 198.349 36.400,198.000 36.580,198.000 36.800 C 198.000 37.020,197.586 37.200,197.080 37.200 C 196.574 37.200,195.918 37.425,195.621 37.700 C 195.188 38.102,195.141 38.096,195.383 37.670 C 195.751 37.023,194.330 37.770,193.045 38.900 C 192.607 39.285,192.053 39.600,191.813 39.600 C 191.573 39.600,191.117 39.960,190.800 40.400 C 190.469 40.860,189.765 41.200,189.145 41.200 C 188.552 41.200,188.007 41.342,187.933 41.515 C 187.750 41.947,183.872 44.199,183.500 44.089 C 183.335 44.040,183.200 44.146,183.200 44.325 C 183.200 44.504,182.578 44.895,181.818 45.193 C 181.058 45.491,180.529 45.885,180.642 46.068 C 180.755 46.250,180.421 46.400,179.899 46.400 C 179.378 46.400,178.564 46.760,178.092 47.200 C 177.620 47.640,177.074 48.000,176.879 48.000 C 176.684 48.000,176.198 48.360,175.800 48.800 C 175.402 49.240,174.849 49.600,174.571 49.600 C 174.294 49.600,174.004 49.788,173.927 50.018 C 173.851 50.248,173.394 50.465,172.911 50.502 C 172.429 50.538,172.115 50.648,172.213 50.747 C 172.312 50.845,171.494 51.371,170.396 51.914 C 169.298 52.457,168.400 53.059,168.400 53.251 C 168.400 53.443,168.080 53.600,167.688 53.600 C 167.297 53.600,166.717 53.960,166.400 54.400 C 166.083 54.840,165.518 55.200,165.145 55.200 C 164.772 55.200,164.404 55.388,164.327 55.618 C 164.251 55.848,163.786 56.066,163.294 56.103 C 162.802 56.140,162.400 56.312,162.400 56.485 C 162.400 56.658,162.119 56.800,161.776 56.800 C 161.433 56.800,161.264 56.980,161.400 57.200 C 161.536 57.420,161.358 57.600,161.004 57.600 C 160.651 57.600,159.377 58.230,158.173 59.000 C 156.969 59.770,155.752 60.400,155.468 60.400 C 155.183 60.400,154.594 60.715,154.158 61.100 C 153.153 61.988,151.209 63.183,150.300 63.471 C 149.915 63.593,149.600 63.852,149.600 64.047 C 149.600 64.241,149.240 64.400,148.800 64.400 C 148.360 64.400,148.000 64.580,148.000 64.800 C 148.000 65.020,147.629 65.200,147.176 65.200 C 146.723 65.200,146.464 65.380,146.600 65.600 C 146.741 65.828,146.396 66.000,145.800 66.000 C 145.204 66.000,144.859 66.172,145.000 66.400 C 145.136 66.620,144.967 66.800,144.624 66.800 C 144.281 66.800,144.000 66.980,144.000 67.200 C 144.000 67.420,143.730 67.600,143.400 67.600 C 143.070 67.600,142.800 67.780,142.800 68.000 C 142.800 68.220,142.440 68.400,142.000 68.400 C 141.560 68.400,141.200 68.580,141.200 68.800 C 141.200 69.020,140.840 69.200,140.400 69.200 C 139.960 69.200,139.600 69.380,139.600 69.600 C 139.600 69.820,139.364 70.000,139.075 70.000 C 138.787 70.000,138.164 70.360,137.692 70.800 C 137.220 71.240,136.596 71.600,136.305 71.600 C 136.014 71.600,135.517 71.960,135.200 72.400 C 134.856 72.877,134.165 73.200,133.488 73.200 C 132.833 73.200,132.457 73.369,132.600 73.600 C 132.736 73.820,132.567 74.000,132.224 74.000 C 131.881 74.000,131.600 74.180,131.600 74.400 C 131.600 74.620,131.297 74.800,130.926 74.800 C 130.555 74.800,129.806 75.205,129.261 75.700 C 128.717 76.195,128.421 76.330,128.604 76.000 C 128.844 75.567,128.714 75.595,128.137 76.100 C 127.697 76.485,127.133 76.800,126.884 76.800 C 126.635 76.800,126.087 77.169,125.666 77.621 C 125.246 78.073,124.526 78.470,124.068 78.505 C 123.609 78.539,123.314 78.647,123.411 78.744 C 123.701 79.034,122.256 79.974,121.500 79.987 C 121.115 79.994,120.800 80.184,120.800 80.409 C 120.800 80.633,120.305 81.035,119.700 81.300 C 119.095 81.566,118.494 81.931,118.364 82.112 C 118.234 82.292,117.712 82.471,117.203 82.510 C 116.694 82.548,116.195 82.899,116.092 83.290 C 115.968 83.767,115.521 84.000,114.730 84.000 C 114.047 84.000,113.657 84.168,113.800 84.400 C 113.936 84.620,113.767 84.800,113.424 84.800 C 113.081 84.800,112.800 84.980,112.800 85.200 C 112.800 85.420,112.429 85.600,111.976 85.600 C 111.523 85.600,111.264 85.780,111.400 86.000 C 111.536 86.220,111.367 86.400,111.024 86.400 C 110.681 86.400,110.400 86.580,110.400 86.800 C 110.400 87.020,110.029 87.200,109.576 87.200 C 109.123 87.200,108.864 87.380,109.000 87.600 C 109.138 87.824,108.829 88.000,108.299 88.000 C 107.778 88.000,106.964 88.360,106.492 88.800 C 106.020 89.240,105.396 89.600,105.105 89.600 C 104.814 89.600,104.317 89.960,104.000 90.400 C 103.683 90.840,103.103 91.200,102.712 91.200 C 102.320 91.200,102.000 91.366,102.000 91.568 C 102.000 91.771,101.460 92.055,100.800 92.200 C 100.140 92.345,99.600 92.629,99.600 92.832 C 99.600 93.034,99.366 93.200,99.080 93.200 C 98.344 93.200,96.407 94.141,96.403 94.500 C 96.401 94.665,96.175 94.800,95.900 94.801 C 95.625 94.801,94.770 95.341,94.000 96.000 C 93.230 96.659,92.285 97.199,91.900 97.199 C 91.515 97.200,91.200 97.380,91.200 97.600 C 91.200 97.820,90.880 98.000,90.488 98.000 C 90.097 98.000,89.517 98.360,89.200 98.800 C 88.883 99.240,88.318 99.600,87.945 99.600 C 87.572 99.600,87.207 99.735,87.133 99.900 C 87.060 100.065,85.785 100.828,84.300 101.596 C 82.815 102.363,81.600 103.128,81.600 103.296 C 81.600 103.463,81.280 103.600,80.888 103.600 C 80.497 103.600,79.917 103.960,79.600 104.400 C 79.283 104.840,78.603 105.200,78.088 105.200 C 77.574 105.200,77.251 105.359,77.371 105.554 C 77.491 105.748,77.007 106.143,76.295 106.431 C 75.583 106.719,74.910 107.067,74.800 107.205 C 74.478 107.608,70.629 109.394,70.300 109.292 C 70.135 109.242,70.000 109.456,70.000 109.768 C 70.000 110.081,69.460 110.455,68.800 110.600 C 68.140 110.745,67.600 111.119,67.600 111.432 C 67.600 111.744,67.240 112.000,66.800 112.000 C 66.360 112.000,66.000 112.150,66.000 112.332 C 66.000 112.515,65.505 112.920,64.900 113.232 C 63.518 113.945,62.800 114.615,62.800 115.190 C 62.800 115.435,62.364 116.072,61.831 116.605 C 61.298 117.138,60.746 117.940,60.604 118.387 C 60.462 118.834,60.168 119.200,59.949 119.200 C 59.731 119.200,59.671 119.391,59.816 119.625 C 59.960 119.859,59.815 120.354,59.492 120.725 C 59.170 121.096,58.877 121.670,58.842 122.000 C 58.489 125.301,58.266 126.364,57.964 126.178 C 57.757 126.050,57.606 157.625,57.602 201.779 C 57.598 246.719,57.743 277.600,57.958 277.600 C 58.157 277.600,58.408 278.365,58.515 279.300 C 58.903 282.671,59.197 283.808,59.793 284.244 C 60.127 284.488,60.400 284.968,60.400 285.310 C 60.400 285.652,60.940 286.442,61.600 287.065 C 62.260 287.688,62.800 288.341,62.800 288.517 C 62.800 289.006,64.470 290.533,65.700 291.168 C 66.305 291.480,66.800 291.885,66.800 292.068 C 66.800 292.250,67.160 292.400,67.600 292.400 C 68.040 292.400,68.400 292.580,68.400 292.800 C 68.400 293.020,68.681 293.200,69.024 293.200 C 69.393 293.200,69.531 293.388,69.362 293.662 C 69.193 293.936,69.251 294.015,69.506 293.858 C 69.742 293.712,70.207 293.864,70.539 294.196 C 70.871 294.528,71.386 294.800,71.683 294.800 C 71.980 294.800,72.483 295.160,72.800 295.600 C 73.117 296.040,73.797 296.400,74.312 296.400 C 74.834 296.400,75.138 296.577,75.000 296.800 C 74.864 297.020,75.123 297.200,75.576 297.200 C 76.029 297.200,76.400 297.380,76.400 297.600 C 76.400 297.820,76.648 298.000,76.951 298.000 C 77.254 298.000,77.724 298.268,77.996 298.596 C 78.268 298.923,78.617 299.113,78.772 299.017 C 78.927 298.921,79.307 299.193,79.615 299.621 C 79.924 300.050,80.463 300.400,80.813 300.400 C 81.163 300.400,81.836 300.760,82.308 301.200 C 82.780 301.640,83.494 302.000,83.895 302.000 C 84.296 302.000,84.883 302.360,85.200 302.800 C 85.517 303.240,86.082 303.600,86.455 303.600 C 86.828 303.600,87.193 303.752,87.267 303.937 C 87.340 304.123,89.020 305.136,91.000 306.190 C 92.980 307.243,94.660 308.262,94.733 308.453 C 94.807 308.644,95.184 308.800,95.571 308.800 C 95.959 308.800,96.602 309.160,97.000 309.600 C 97.398 310.040,98.064 310.400,98.479 310.400 C 98.894 310.400,99.620 310.760,100.092 311.200 C 100.564 311.640,101.187 312.000,101.475 312.000 C 101.764 312.000,102.000 312.180,102.000 312.400 C 102.000 312.620,102.320 312.800,102.712 312.800 C 103.103 312.800,103.683 313.160,104.000 313.600 C 104.317 314.040,104.897 314.400,105.288 314.400 C 105.680 314.400,106.000 314.591,106.000 314.824 C 106.000 315.057,106.161 315.148,106.358 315.026 C 106.555 314.904,106.819 315.074,106.946 315.402 C 107.072 315.731,107.591 316.000,108.099 316.000 C 108.607 316.000,109.283 316.360,109.600 316.800 C 109.917 317.240,110.497 317.600,110.888 317.600 C 111.280 317.600,111.600 317.736,111.600 317.902 C 111.600 318.069,112.141 318.444,112.802 318.737 C 113.464 319.030,113.926 319.395,113.831 319.550 C 113.736 319.704,114.101 319.867,114.642 319.912 C 115.183 319.957,116.014 320.355,116.489 320.797 C 116.963 321.238,117.587 321.600,117.875 321.600 C 118.164 321.600,118.400 321.750,118.400 321.932 C 118.400 322.115,118.895 322.513,119.500 322.816 C 120.105 323.119,120.843 323.546,121.140 323.766 C 121.438 323.985,121.974 324.208,122.333 324.261 C 122.692 324.313,123.049 324.546,123.126 324.778 C 123.203 325.010,123.674 325.200,124.171 325.200 C 124.669 325.200,125.402 325.560,125.800 326.000 C 126.198 326.440,126.738 326.800,127.000 326.800 C 127.262 326.800,127.802 327.160,128.200 327.600 C 128.598 328.040,129.166 328.400,129.462 328.400 C 129.758 328.400,130.000 328.580,130.000 328.800 C 130.000 329.020,130.236 329.200,130.525 329.200 C 130.813 329.200,131.405 329.515,131.840 329.900 C 132.275 330.285,132.894 330.659,133.216 330.730 C 133.537 330.802,133.860 331.027,133.933 331.230 C 134.007 331.434,134.412 331.600,134.833 331.600 C 135.255 331.600,135.600 331.780,135.600 332.000 C 135.600 332.220,135.960 332.400,136.400 332.400 C 136.840 332.400,137.200 332.545,137.200 332.721 C 137.200 332.898,138.097 333.483,139.194 334.021 C 140.290 334.560,141.190 335.135,141.194 335.300 C 141.197 335.465,141.436 335.600,141.725 335.600 C 142.013 335.600,142.598 335.915,143.025 336.301 C 143.451 336.686,144.700 337.451,145.800 338.001 C 146.900 338.550,147.860 339.135,147.933 339.300 C 148.007 339.465,148.390 339.600,148.784 339.600 C 149.179 339.600,149.719 339.861,149.983 340.180 C 150.562 340.878,153.617 342.400,154.438 342.400 C 154.760 342.400,155.283 342.760,155.600 343.200 C 155.917 343.640,156.497 344.000,156.888 344.000 C 157.280 344.000,157.600 344.180,157.600 344.400 C 157.600 344.620,157.971 344.800,158.424 344.800 C 158.877 344.800,159.148 344.960,159.027 345.156 C 158.906 345.352,159.411 345.799,160.148 346.149 C 160.886 346.499,161.717 347.059,161.994 347.393 C 162.271 347.727,162.843 348.000,163.266 348.000 C 163.688 348.000,164.420 348.360,164.892 348.800 C 165.364 349.240,165.987 349.600,166.275 349.600 C 166.564 349.600,166.800 349.780,166.800 350.000 C 166.800 350.220,167.120 350.400,167.512 350.400 C 167.903 350.400,168.483 350.760,168.800 351.200 C 169.117 351.640,169.663 352.000,170.013 352.000 C 170.363 352.000,171.036 352.360,171.508 352.800 C 171.980 353.240,172.719 353.600,173.150 353.600 C 173.581 353.600,173.993 353.757,174.067 353.948 C 174.274 354.490,178.744 357.235,179.724 357.423 C 180.206 357.515,180.800 357.863,181.044 358.195 C 181.288 358.528,181.834 358.800,182.256 358.800 C 182.678 358.800,183.283 359.160,183.600 359.600 C 183.917 360.040,184.497 360.400,184.888 360.400 C 185.280 360.400,185.600 360.580,185.600 360.800 C 185.600 361.020,185.920 361.200,186.312 361.200 C 186.703 361.200,187.283 361.560,187.600 362.000 C 187.918 362.441,188.635 362.800,189.200 362.800 C 189.765 362.800,190.482 363.159,190.800 363.600 C 191.117 364.040,191.585 364.400,191.839 364.400 C 192.094 364.400,192.523 364.666,192.793 364.992 C 193.384 365.703,195.502 366.800,196.285 366.800 C 196.594 366.800,196.758 366.944,196.649 367.120 C 196.541 367.296,197.110 367.484,197.914 367.538 C 198.718 367.593,199.471 367.781,199.588 367.957 C 199.860 368.369,207.195 369.116,206.942 368.707 C 206.838 368.538,207.573 368.400,208.576 368.400 C 209.579 368.400,210.400 368.220,210.400 368.000 C 210.400 367.780,210.996 367.600,211.725 367.600 C 212.496 367.600,213.408 367.266,213.908 366.800 C 214.380 366.360,215.134 366.000,215.583 366.000 C 216.032 366.000,216.400 365.820,216.400 365.600 C 216.400 365.380,216.670 365.200,217.000 365.200 C 217.330 365.200,217.600 365.020,217.600 364.800 C 217.600 364.580,217.920 364.400,218.312 364.400 C 218.703 364.400,219.283 364.040,219.600 363.600 C 219.917 363.160,220.497 362.800,220.888 362.800 C 221.280 362.800,221.600 362.654,221.600 362.475 C 221.600 362.296,222.230 361.902,223.000 361.600 C 223.770 361.298,224.400 360.904,224.400 360.725 C 224.400 360.546,224.720 360.400,225.112 360.400 C 225.503 360.400,226.083 360.040,226.400 359.600 C 226.717 359.160,227.272 358.800,227.632 358.800 C 227.993 358.800,228.908 358.379,229.666 357.865 C 230.424 357.351,232.204 356.320,233.622 355.575 C 235.040 354.829,236.290 354.110,236.400 353.977 C 236.510 353.845,237.185 353.481,237.900 353.170 C 238.615 352.859,239.200 352.469,239.200 352.302 C 239.200 352.136,239.520 352.000,239.912 352.000 C 240.303 352.000,240.883 351.640,241.200 351.200 C 241.517 350.760,242.097 350.400,242.488 350.400 C 242.880 350.400,243.200 350.220,243.200 350.000 C 243.200 349.780,243.520 349.600,243.912 349.600 C 244.303 349.600,244.883 349.240,245.200 348.800 C 245.518 348.359,246.235 348.000,246.800 348.000 C 247.365 348.000,248.082 347.641,248.400 347.200 C 248.717 346.760,249.257 346.400,249.600 346.400 C 249.943 346.400,250.483 346.040,250.800 345.600 C 251.117 345.160,251.697 344.800,252.088 344.800 C 252.480 344.800,252.800 344.620,252.800 344.400 C 252.800 344.180,253.126 344.000,253.525 344.000 C 253.923 344.000,254.636 343.640,255.108 343.200 C 255.580 342.760,256.244 342.400,256.583 342.400 C 256.922 342.400,257.200 342.255,257.200 342.077 C 257.200 341.899,257.920 341.436,258.800 341.048 C 259.680 340.660,260.400 340.175,260.400 339.971 C 260.400 339.767,260.636 339.600,260.925 339.600 C 261.213 339.600,261.798 339.280,262.225 338.890 C 262.651 338.499,263.765 337.930,264.700 337.626 C 265.635 337.321,266.400 336.921,266.400 336.736 C 266.400 336.551,266.670 336.400,267.000 336.400 C 267.330 336.400,267.600 336.220,267.600 336.000 C 267.600 335.780,267.920 335.600,268.312 335.600 C 268.703 335.600,269.283 335.240,269.600 334.800 C 269.917 334.360,270.497 334.000,270.888 334.000 C 271.280 334.000,271.600 333.820,271.600 333.600 C 271.600 333.380,271.870 333.200,272.200 333.200 C 272.530 333.200,272.800 333.020,272.800 332.800 C 272.800 332.580,273.087 332.400,273.438 332.400 C 274.092 332.400,276.494 330.880,276.733 330.314 C 276.807 330.142,277.212 330.000,277.633 330.000 C 278.055 330.000,278.400 329.820,278.400 329.600 C 278.400 329.380,278.760 329.200,279.200 329.200 C 279.640 329.200,280.000 329.020,280.000 328.800 C 280.000 328.580,280.320 328.400,280.712 328.400 C 281.103 328.400,281.683 328.040,282.000 327.600 C 282.317 327.160,282.857 326.800,283.200 326.800 C 283.543 326.800,284.083 326.440,284.400 326.000 C 284.717 325.560,285.342 325.199,285.788 325.197 C 286.235 325.196,287.140 324.830,287.800 324.385 C 288.460 323.939,289.585 323.290,290.300 322.942 C 291.015 322.594,291.600 322.149,291.600 321.954 C 291.600 321.759,291.915 321.596,292.300 321.591 C 292.685 321.586,293.450 321.230,294.000 320.800 C 294.550 320.370,295.233 320.014,295.517 320.009 C 295.801 320.004,296.420 319.640,296.892 319.200 C 297.364 318.760,297.987 318.400,298.275 318.400 C 298.564 318.400,298.800 318.220,298.800 318.000 C 298.800 317.780,299.036 317.600,299.325 317.600 C 299.613 317.600,300.236 317.240,300.708 316.800 C 301.180 316.360,301.820 316.000,302.129 316.000 C 302.439 316.000,303.150 315.640,303.709 315.200 C 304.269 314.760,305.023 314.400,305.387 314.400 C 305.750 314.400,305.936 314.220,305.800 314.000 C 305.664 313.780,305.844 313.600,306.200 313.600 C 306.556 313.600,306.736 313.420,306.600 313.200 C 306.464 312.980,306.721 312.800,307.172 312.800 C 307.918 312.800,308.783 312.260,310.216 310.900 C 310.506 310.625,311.166 310.400,311.683 310.400 C 312.200 310.400,312.883 310.040,313.200 309.600 C 313.517 309.160,314.023 308.800,314.325 308.800 C 314.627 308.800,315.328 308.442,315.884 308.005 C 316.439 307.568,317.053 307.309,317.247 307.429 C 317.441 307.549,317.600 307.478,317.600 307.272 C 317.600 307.066,318.140 306.673,318.800 306.400 C 319.460 306.127,320.000 305.745,320.000 305.551 C 320.000 305.358,320.416 305.200,320.925 305.200 C 321.433 305.200,322.236 304.840,322.708 304.400 C 323.180 303.960,323.753 303.600,323.980 303.600 C 324.207 303.600,324.618 303.240,324.893 302.800 C 325.168 302.360,325.709 302.000,326.096 302.000 C 326.483 302.000,326.800 301.820,326.800 301.600 C 326.800 301.380,327.160 301.200,327.600 301.200 C 328.040 301.200,328.400 301.020,328.400 300.800 C 328.400 300.580,328.760 300.400,329.200 300.400 C 329.640 300.400,330.000 300.220,330.000 300.000 C 330.000 299.780,330.320 299.600,330.712 299.600 C 331.103 299.600,331.683 299.240,332.000 298.800 C 332.317 298.360,332.897 298.000,333.288 298.000 C 333.680 298.000,334.000 297.820,334.000 297.600 C 334.000 297.380,334.360 297.200,334.800 297.200 C 335.240 297.200,335.600 297.020,335.600 296.800 C 335.600 296.580,335.788 296.400,336.017 296.400 C 336.246 296.400,336.820 296.040,337.292 295.600 C 337.764 295.160,338.477 294.800,338.875 294.800 C 339.274 294.800,339.600 294.620,339.600 294.400 C 339.600 294.180,339.870 294.000,340.200 294.000 C 340.530 294.000,340.800 293.820,340.800 293.600 C 340.800 293.380,341.070 293.200,341.400 293.200 C 341.730 293.200,342.000 293.041,342.000 292.847 C 342.000 292.652,342.315 292.379,342.700 292.240 C 343.965 291.783,345.389 290.845,346.050 290.033 C 346.408 289.593,346.813 289.346,346.950 289.484 C 347.088 289.621,347.200 289.409,347.200 289.014 C 347.200 288.618,347.523 288.003,347.918 287.647 C 348.790 286.860,350.400 284.143,350.400 283.457 C 350.400 282.743,351.346 280.807,351.696 280.803 C 352.520 280.794,352.030 124.078,351.202 122.603 C 350.761 121.818,350.400 120.731,350.400 120.188 C 350.400 119.645,350.220 119.200,350.000 119.200 C 349.780 119.200,349.600 118.930,349.600 118.600 C 349.600 118.270,349.420 118.000,349.200 118.000 C 348.980 118.000,348.800 117.802,348.800 117.560 C 348.800 117.319,348.305 116.638,347.700 116.048 C 347.095 115.458,346.405 114.621,346.167 114.188 C 345.929 113.755,345.344 113.222,344.867 113.005 C 344.390 112.788,344.000 112.473,344.000 112.305 C 344.000 112.137,343.640 112.000,343.200 112.000 C 342.760 112.000,342.400 111.857,342.400 111.683 C 342.400 111.509,341.185 110.661,339.700 109.798 C 338.215 108.936,336.940 108.088,336.867 107.915 C 336.793 107.742,336.478 107.600,336.167 107.600 C 335.855 107.600,335.600 107.420,335.600 107.200 C 335.600 106.980,335.240 106.800,334.800 106.800 C 334.360 106.800,334.000 106.590,334.000 106.333 C 334.000 106.077,333.885 105.982,333.744 106.123 C 333.430 106.436,331.239 105.258,330.353 104.300 C 329.997 103.915,329.538 103.600,329.333 103.600 C 328.712 103.600,326.806 102.621,326.803 102.300 C 326.801 102.135,326.522 102.000,326.183 102.000 C 325.844 102.000,325.180 101.640,324.708 101.200 C 324.236 100.760,323.613 100.400,323.325 100.400 C 323.036 100.400,322.800 100.220,322.800 100.000 C 322.800 99.780,322.530 99.600,322.200 99.600 C 321.870 99.600,321.600 99.420,321.600 99.200 C 321.600 98.980,321.240 98.800,320.800 98.800 C 320.360 98.800,320.000 98.620,320.000 98.400 C 320.000 98.180,319.668 98.000,319.262 98.000 C 318.856 98.000,318.198 97.640,317.800 97.200 C 317.402 96.760,316.847 96.400,316.567 96.400 C 316.286 96.400,315.749 96.092,315.372 95.715 C 314.996 95.339,314.429 94.992,314.113 94.946 C 312.957 94.776,312.355 94.396,312.604 93.993 C 312.745 93.766,312.711 93.604,312.530 93.633 C 311.912 93.733,310.400 93.108,310.400 92.753 C 310.400 92.559,310.265 92.436,310.100 92.479 C 309.554 92.623,308.000 91.953,308.000 91.573 C 308.000 91.368,307.683 91.200,307.296 91.200 C 306.909 91.200,306.368 90.840,306.093 90.400 C 305.818 89.960,305.235 89.600,304.797 89.600 C 304.358 89.600,303.640 89.240,303.200 88.800 C 302.760 88.360,302.130 88.000,301.800 88.000 C 301.470 88.000,301.200 87.820,301.200 87.600 C 301.200 87.380,300.922 87.200,300.583 87.200 C 300.244 87.200,299.580 86.840,299.108 86.400 C 298.636 85.960,297.854 85.600,297.371 85.600 C 296.830 85.600,296.413 85.293,296.284 84.800 C 296.143 84.259,295.738 84.000,295.037 84.000 C 294.467 84.000,294.000 83.816,294.000 83.591 C 294.000 83.367,293.505 82.965,292.900 82.700 C 292.295 82.434,291.710 82.123,291.600 82.008 C 290.813 81.189,288.691 80.000,288.016 80.000 C 287.567 80.000,287.200 79.821,287.200 79.602 C 287.200 79.383,286.390 78.823,285.400 78.358 C 284.410 77.893,283.600 77.341,283.600 77.132 C 283.600 76.924,283.432 76.856,283.228 76.983 C 283.023 77.109,282.754 77.049,282.630 76.848 C 282.284 76.289,279.265 74.800,278.476 74.800 C 278.091 74.800,277.517 74.440,277.200 74.000 C 276.883 73.560,276.303 73.200,275.912 73.200 C 275.520 73.200,275.200 73.020,275.200 72.800 C 275.200 72.580,274.919 72.400,274.576 72.400 C 274.233 72.400,274.064 72.220,274.200 72.000 C 274.336 71.780,274.077 71.600,273.624 71.600 C 273.171 71.600,272.800 71.454,272.800 71.275 C 272.800 71.096,272.170 70.702,271.400 70.400 C 270.630 70.098,270.000 69.704,270.000 69.525 C 270.000 69.346,269.730 69.200,269.400 69.200 C 269.070 69.200,268.800 69.020,268.800 68.800 C 268.800 68.580,268.530 68.400,268.200 68.400 C 267.870 68.400,267.600 68.220,267.600 68.000 C 267.600 67.780,267.240 67.600,266.800 67.600 C 266.360 67.600,266.000 67.420,266.000 67.200 C 266.000 66.980,265.640 66.800,265.200 66.800 C 264.760 66.800,264.400 66.620,264.400 66.400 C 264.400 66.180,264.080 66.000,263.688 66.000 C 263.297 66.000,262.717 65.640,262.400 65.200 C 262.083 64.760,261.543 64.400,261.200 64.400 C 260.857 64.400,260.317 64.040,260.000 63.600 C 259.683 63.160,259.103 62.800,258.712 62.800 C 258.320 62.800,258.000 62.620,258.000 62.400 C 258.000 62.180,257.664 62.000,257.254 62.000 C 256.844 62.000,256.050 61.640,255.491 61.200 C 254.931 60.760,254.277 60.400,254.037 60.400 C 253.797 60.400,253.600 60.241,253.600 60.047 C 253.600 59.852,253.236 59.598,252.791 59.482 C 251.576 59.164,251.463 59.104,250.625 58.322 C 250.198 57.925,249.696 57.600,249.508 57.600 C 249.320 57.600,248.780 57.240,248.308 56.800 C 247.836 56.360,247.033 56.000,246.525 56.000 C 246.016 56.000,245.600 55.820,245.600 55.600 C 245.600 55.380,245.280 55.200,244.888 55.200 C 244.497 55.200,243.917 54.840,243.600 54.400 C 243.283 53.960,242.743 53.600,242.400 53.600 C 242.057 53.600,241.517 53.240,241.200 52.800 C 240.883 52.360,240.303 52.000,239.912 52.000 C 239.520 52.000,239.200 51.820,239.200 51.600 C 239.200 51.380,238.840 51.200,238.400 51.200 C 237.960 51.200,237.600 51.064,237.600 50.898 C 237.600 50.731,237.015 50.340,236.300 50.028 C 235.585 49.716,234.709 49.132,234.353 48.730 C 233.997 48.329,233.412 48.000,233.053 48.000 C 232.694 48.000,232.397 47.865,232.394 47.700 C 232.390 47.535,231.490 46.960,230.394 46.421 C 229.297 45.883,228.400 45.298,228.400 45.121 C 228.400 44.945,228.040 44.800,227.600 44.800 C 227.160 44.800,226.800 44.620,226.800 44.400 C 226.800 44.180,226.468 44.000,226.062 44.000 C 225.656 44.000,224.801 43.550,224.162 43.000 C 223.523 42.451,222.685 42.001,222.300 42.000 C 221.915 42.000,221.600 41.820,221.600 41.600 C 221.600 41.380,221.280 41.200,220.888 41.200 C 220.497 41.200,219.924 40.850,219.615 40.421 C 219.307 39.993,218.930 39.719,218.779 39.813 C 218.627 39.907,218.097 39.631,217.600 39.200 C 217.103 38.769,216.540 38.513,216.348 38.632 C 216.157 38.750,216.000 38.657,216.000 38.424 C 216.000 38.191,215.640 38.000,215.200 38.000 C 214.760 38.000,214.400 37.820,214.400 37.600 C 214.400 37.380,213.860 37.200,213.200 37.200 C 212.540 37.200,212.000 37.020,212.000 36.800 C 212.000 36.580,211.640 36.400,211.200 36.400 C 210.760 36.400,210.400 36.220,210.400 36.000 C 210.400 35.754,208.408 35.600,205.224 35.600 C 202.204 35.600,199.944 35.767,199.800 36.000 M168.454 140.388 C 170.514 140.817,173.730 141.279,175.600 141.414 C 180.731 141.785,186.388 143.093,190.200 144.790 C 199.391 148.881,201.071 150.079,202.821 153.783 L 204.000 156.277 204.000 173.739 C 204.000 190.616,203.860 192.559,202.824 190.057 C 200.153 183.609,180.988 175.389,166.800 174.605 C 161.038 174.287,157.351 173.568,150.920 171.509 C 145.963 169.922,146.072 170.182,148.009 164.546 C 148.905 161.936,150.247 158.000,150.990 155.800 C 154.744 144.690,157.250 137.816,157.634 137.579 C 157.868 137.434,159.555 137.831,161.384 138.462 C 163.212 139.092,166.393 139.959,168.454 140.388 M253.478 141.600 C 254.208 143.690,255.354 147.020,256.024 149.000 C 256.694 150.980,257.401 152.960,257.595 153.400 C 257.789 153.840,258.331 155.370,258.800 156.800 C 259.269 158.230,259.810 159.760,260.002 160.200 C 263.597 168.431,263.470 169.851,259.000 171.391 C 253.410 173.317,248.679 174.252,242.800 174.594 C 228.314 175.434,207.995 184.254,206.545 190.331 C 205.493 194.738,205.212 191.216,205.206 173.510 C 205.200 156.728,205.232 155.966,205.999 154.710 C 206.438 153.989,206.798 153.099,206.799 152.731 C 206.802 151.095,212.021 147.656,218.276 145.168 C 224.808 142.570,226.815 142.058,232.305 141.591 C 237.677 141.134,244.043 139.869,247.381 138.595 C 251.584 136.992,251.929 137.162,253.478 141.600 M149.802 173.431 C 155.515 175.535,160.929 176.734,168.600 177.594 C 174.712 178.280,178.495 179.067,182.942 180.579 C 190.333 183.091,194.579 185.130,192.524 185.179 C 192.042 185.191,191.548 185.040,191.427 184.844 C 191.306 184.649,190.621 184.397,189.904 184.284 C 189.187 184.172,187.250 183.702,185.600 183.239 C 177.556 180.981,170.579 180.105,165.520 180.717 C 156.851 181.766,142.921 179.505,143.850 177.200 C 143.983 176.870,144.223 176.056,144.384 175.391 C 145.176 172.099,145.686 171.915,149.802 173.431 M264.742 173.500 C 266.789 178.630,266.503 178.932,258.400 180.168 C 251.820 181.173,249.569 181.272,244.618 180.775 C 238.869 180.198,232.981 180.840,225.527 182.856 C 223.037 183.529,220.413 184.172,219.696 184.284 C 218.979 184.397,218.294 184.649,218.173 184.844 C 218.052 185.040,217.558 185.196,217.076 185.191 C 216.194 185.182,217.589 183.636,218.504 183.609 C 218.672 183.604,219.572 183.256,220.504 182.836 C 226.301 180.222,232.319 178.637,239.589 177.807 C 246.595 177.008,250.702 176.284,254.600 175.163 C 256.955 174.485,261.010 173.095,261.600 172.762 C 262.897 172.032,264.286 172.358,264.742 173.500 M151.400 182.569 C 156.301 183.465,158.098 183.593,165.800 183.598 C 175.163 183.604,178.665 183.984,186.500 185.847 C 188.865 186.410,190.800 187.034,190.800 187.235 C 190.800 187.436,191.196 187.600,191.680 187.600 C 192.320 187.600,192.440 187.720,192.120 188.040 C 191.806 188.354,191.293 188.360,190.340 188.064 C 188.966 187.636,185.799 187.182,178.368 186.347 C 174.127 185.871,168.123 186.229,164.422 187.180 C 159.428 188.463,150.805 189.082,145.800 188.516 L 143.000 188.200 142.879 186.321 C 142.673 183.124,143.432 181.073,144.727 181.331 C 145.317 181.448,148.320 182.005,151.400 182.569 M266.500 183.000 C 266.683 183.880,266.780 185.410,266.716 186.400 L 266.600 188.200 263.800 188.516 C 260.684 188.867,251.479 188.553,249.000 188.011 C 239.807 186.000,223.283 186.059,218.892 188.118 C 218.230 188.429,217.856 188.416,217.512 188.072 C 217.149 187.709,217.244 187.600,217.920 187.600 C 218.404 187.600,218.800 187.436,218.800 187.235 C 218.800 187.034,220.735 186.410,223.100 185.848 C 231.324 183.894,233.993 183.600,243.552 183.596 C 252.189 183.593,262.882 182.451,263.910 181.423 C 264.750 180.584,266.180 181.454,266.500 183.000 M185.288 189.629 C 191.504 190.446,190.966 191.032,183.950 191.087 C 174.298 191.161,169.811 191.760,163.344 193.834 C 156.311 196.090,149.902 197.270,145.521 197.117 L 142.200 197.000 142.200 194.085 C 142.200 190.881,142.622 190.212,144.400 190.598 C 148.025 191.386,155.675 191.245,163.400 190.248 C 175.199 188.725,177.832 188.650,185.288 189.629 M240.823 189.600 C 242.350 189.820,244.905 190.196,246.500 190.436 C 251.463 191.181,259.381 191.361,263.070 190.813 C 267.153 190.205,267.154 190.206,267.292 194.012 L 267.400 197.000 264.079 197.117 C 259.777 197.267,253.268 196.099,246.800 194.015 C 239.546 191.678,229.139 190.457,221.600 191.059 C 219.042 191.264,219.019 191.257,220.162 190.625 C 222.464 189.353,234.847 188.739,240.823 189.600 M134.360 222.003 L 144.200 222.006 147.500 225.264 L 150.800 228.522 150.800 232.061 L 150.800 235.600 146.483 235.600 L 142.167 235.600 140.392 233.792 L 138.617 231.984 130.809 232.092 L 123.000 232.200 123.000 244.200 L 123.000 256.200 130.900 256.308 L 138.800 256.417 138.800 252.821 L 138.800 249.225 133.900 249.112 L 129.000 249.000 129.000 244.200 L 129.000 239.400 139.900 239.294 L 150.800 239.187 150.800 249.526 L 150.800 259.866 147.610 263.069 L 144.420 266.272 135.345 266.536 C 130.354 266.681,124.387 266.800,122.084 266.800 L 117.897 266.800 114.348 263.328 L 110.800 259.855 110.800 244.219 L 110.800 228.582 114.100 225.337 C 118.036 221.466,117.836 221.560,121.560 221.805 C 123.189 221.912,128.949 222.001,134.360 222.003 M295.418 225.218 L 298.800 228.582 298.800 234.121 L 298.800 239.659 296.577 241.989 L 294.355 244.320 296.577 246.560 L 298.800 248.800 298.800 254.328 L 298.800 259.855 295.215 263.363 L 291.630 266.871 275.315 266.585 C 266.342 266.428,258.910 266.217,258.800 266.116 C 258.511 265.853,258.319 224.849,258.599 223.305 L 258.834 222.010 273.117 221.880 C 280.973 221.808,288.443 221.773,289.718 221.801 L 292.036 221.854 295.418 225.218 M196.253 225.275 L 199.608 228.549 199.504 247.375 L 199.400 266.200 193.910 266.311 L 188.421 266.422 188.310 260.311 L 188.200 254.200 180.549 254.092 L 172.898 253.983 172.654 254.892 C 172.520 255.391,172.408 258.185,172.405 261.100 L 172.400 266.400 166.600 266.400 L 160.800 266.400 160.800 247.508 L 160.800 228.617 164.091 225.308 L 167.382 222.000 180.140 222.000 L 192.898 222.000 196.253 225.275 M245.449 225.271 L 248.800 228.542 248.800 244.200 L 248.800 259.858 245.449 263.129 L 242.098 266.400 226.292 266.400 C 212.248 266.400,210.459 266.329,210.243 265.767 C 209.926 264.941,209.926 223.459,210.243 222.633 C 210.459 222.071,212.248 222.000,226.292 222.000 L 242.098 222.000 245.449 225.271 M172.675 232.258 C 172.172 232.761,172.359 243.399,172.880 243.920 C 173.218 244.258,175.518 244.400,180.672 244.400 C 189.313 244.400,188.488 245.156,188.315 237.400 L 188.200 232.200 180.575 232.092 C 176.381 232.032,172.826 232.107,172.675 232.258 M221.384 232.496 C 221.276 232.779,221.235 238.228,221.294 244.605 L 221.400 256.200 229.200 256.200 L 237.000 256.200 237.000 244.200 L 237.000 232.200 229.291 232.091 C 223.304 232.007,221.538 232.097,221.384 232.496 M270.882 232.336 C 270.512 232.574,270.398 233.574,270.482 235.835 L 270.600 239.000 278.600 239.000 L 286.600 239.000 286.600 235.600 L 286.600 232.200 279.000 232.101 C 274.820 232.047,271.167 232.153,270.882 232.336 M270.675 249.458 C 270.524 249.610,270.400 251.140,270.400 252.859 C 270.400 256.697,269.798 256.466,279.400 256.314 L 286.600 256.200 286.600 252.800 L 286.600 249.400 278.775 249.292 C 274.471 249.232,270.826 249.307,270.675 249.458 " stroke="none" fill="#fbcb3b" fill-rule="evenodd"></path><path id="path1" d="M157.701 138.914 C 157.470 139.401,157.064 140.430,156.800 141.200 C 156.536 141.970,156.176 142.960,156.000 143.400 C 155.824 143.840,155.464 144.830,155.200 145.600 C 154.936 146.370,154.572 147.360,154.393 147.800 C 154.214 148.240,153.977 148.960,153.868 149.400 C 153.759 149.840,152.922 152.270,152.008 154.800 C 148.052 165.754,147.005 169.165,147.460 169.620 C 147.941 170.101,153.472 171.823,156.400 172.404 C 157.390 172.600,158.695 172.880,159.300 173.027 L 160.399 173.293 160.382 156.493 C 160.367 141.162,160.306 139.642,159.683 139.107 C 158.448 138.048,158.126 138.017,157.701 138.914 M250.100 138.784 L 249.200 139.528 249.200 156.411 L 249.200 173.293 250.100 173.011 C 250.595 172.856,251.900 172.576,253.000 172.389 C 257.213 171.674,262.402 169.863,262.396 169.110 C 262.393 168.829,261.741 166.800,260.947 164.600 C 260.152 162.400,259.413 160.192,259.304 159.694 C 259.194 159.196,258.946 158.690,258.752 158.570 C 258.559 158.451,258.400 157.949,258.400 157.456 C 258.400 156.963,258.257 156.389,258.082 156.180 C 257.907 155.971,257.534 155.080,257.253 154.200 C 256.756 152.642,255.447 149.011,254.801 147.400 C 254.625 146.960,254.264 145.970,254.000 145.200 C 253.418 143.507,252.829 142.040,252.353 141.105 C 252.159 140.723,252.000 140.173,252.000 139.882 C 252.000 138.541,251.055 137.994,250.100 138.784 M190.126 162.859 L 190.116 179.580 194.348 182.049 C 196.969 183.578,199.535 185.468,201.090 187.015 L 203.600 189.513 203.600 173.095 L 203.600 156.677 202.423 154.187 C 200.703 150.547,195.700 147.043,191.168 146.305 L 190.137 146.137 190.126 162.859 M218.200 146.317 C 214.326 146.940,207.203 151.382,207.199 153.178 C 207.198 153.520,206.838 154.389,206.399 155.110 C 205.633 156.365,205.600 157.128,205.607 173.510 L 205.613 190.600 206.498 189.200 C 208.098 186.668,215.666 180.994,218.904 179.900 C 219.732 179.620,219.030 146.184,218.200 146.317 M145.061 174.846 C 143.862 178.558,144.472 178.909,153.725 179.828 L 156.451 180.099 156.325 178.379 C 156.197 176.625,154.871 175.307,153.155 175.229 C 152.800 175.213,151.201 174.660,149.600 174.000 C 145.832 172.446,145.836 172.446,145.061 174.846 M259.839 174.032 C 258.321 174.674,256.833 175.200,256.534 175.200 C 255.932 175.200,254.516 175.940,253.715 176.671 C 253.432 176.931,253.200 177.804,253.200 178.612 L 253.200 180.081 256.100 179.819 C 258.697 179.583,261.737 179.123,264.300 178.577 C 265.370 178.349,265.420 177.687,264.585 174.873 C 263.858 172.426,263.700 172.398,259.839 174.032 M143.847 182.222 C 143.216 183.866,143.086 187.282,143.640 187.633 C 145.027 188.512,154.646 188.062,155.046 187.100 C 155.618 185.723,155.277 184.000,154.433 184.000 C 153.828 184.000,146.789 182.380,144.747 181.771 C 144.378 181.661,143.987 181.856,143.847 182.222 M262.400 182.359 C 257.943 183.563,256.018 184.000,255.172 184.000 C 254.448 184.000,254.370 184.214,254.478 185.900 L 254.600 187.800 259.600 187.916 C 266.774 188.082,267.683 187.250,265.770 182.267 C 265.469 181.480,265.674 181.475,262.400 182.359 M143.033 191.547 C 142.937 191.701,142.733 192.947,142.578 194.314 L 142.297 196.800 144.648 196.792 C 146.975 196.784,152.347 195.960,153.700 195.403 C 154.801 194.949,154.653 192.474,153.500 192.047 C 152.330 191.613,143.259 191.180,143.033 191.547 M260.400 191.590 C 255.643 191.936,255.200 192.124,255.200 193.800 C 255.200 195.345,255.443 195.480,259.600 196.238 C 266.420 197.480,267.345 197.145,266.885 193.600 C 266.554 191.042,266.818 191.124,260.400 191.590 M114.500 225.613 L 111.200 228.919 111.200 244.253 L 111.200 259.586 114.500 262.824 L 117.800 266.062 130.951 265.887 L 144.102 265.711 147.051 262.665 L 150.000 259.619 150.000 249.841 L 150.000 240.062 140.100 239.926 C 128.436 239.764,129.200 239.465,129.200 244.200 C 129.200 248.924,129.163 248.893,134.586 248.758 C 139.740 248.630,139.663 248.563,139.516 253.036 L 139.400 256.600 131.000 256.600 L 122.600 256.600 122.600 244.200 L 122.600 231.800 130.800 231.695 L 139.000 231.590 140.751 233.195 L 142.501 234.800 146.251 234.800 L 150.000 234.800 150.000 231.879 L 150.000 228.959 147.026 225.866 L 144.051 222.774 130.926 222.541 L 117.800 222.308 114.500 225.613 M266.500 222.699 L 259.600 222.819 259.600 244.146 L 259.600 265.473 268.064 265.736 C 272.720 265.881,279.969 266.000,284.173 266.000 L 291.817 266.000 295.109 262.722 L 298.400 259.443 298.400 254.209 L 298.400 248.975 295.999 246.599 L 293.598 244.223 295.999 241.801 L 298.400 239.378 298.400 234.180 L 298.400 228.982 295.092 225.691 L 291.783 222.400 282.592 222.490 C 277.536 222.539,270.295 222.634,266.500 222.699 M286.717 231.940 C 287.091 232.177,287.201 233.251,287.117 235.834 L 287.000 239.400 279.070 239.731 C 274.708 239.913,270.883 239.964,270.570 239.844 C 269.972 239.614,269.699 232.434,270.267 231.867 C 270.652 231.481,286.102 231.550,286.717 231.940 M286.700 248.999 C 287.050 249.122,287.200 250.256,287.200 252.780 C 287.200 257.183,287.960 256.865,277.800 256.714 L 270.200 256.600 270.083 253.007 C 269.995 250.298,270.103 249.314,270.521 249.007 C 271.056 248.615,285.587 248.608,286.700 248.999 " stroke="none" fill="#9e693f" fill-rule="evenodd"></path><path id="path2" d="M159.000 137.917 C 159.220 138.146,161.290 138.962,163.600 139.731 L 167.800 141.128 167.904 157.564 L 168.009 174.000 165.704 173.999 C 164.437 173.998,161.805 173.718,159.855 173.377 C 157.905 173.036,156.221 172.845,156.114 172.953 C 156.006 173.060,156.612 173.259,157.459 173.395 C 158.307 173.530,159.720 173.802,160.600 173.998 C 161.480 174.195,164.180 174.462,166.600 174.591 C 175.364 175.062,182.709 177.129,192.217 181.801 C 195.053 183.194,196.976 184.034,196.489 183.667 C 195.429 182.868,193.190 181.707,189.400 179.991 C 187.860 179.294,185.945 178.381,185.146 177.962 C 184.346 177.543,183.401 177.200,183.046 177.200 C 182.462 177.200,182.400 175.577,182.400 160.200 L 182.400 143.200 183.304 143.200 C 183.801 143.200,185.998 143.823,188.186 144.585 C 192.260 146.004,193.554 146.252,190.893 145.104 C 186.050 143.015,181.056 141.809,175.600 141.412 C 170.657 141.053,164.159 139.592,159.200 137.726 C 158.792 137.572,158.728 137.633,159.000 137.917 M247.381 138.605 C 244.020 139.874,237.647 141.136,232.305 141.591 C 226.817 142.058,224.807 142.570,218.285 145.165 C 214.026 146.859,210.667 148.592,209.976 149.452 C 209.548 149.985,209.729 149.938,210.683 149.270 C 213.368 147.387,223.898 143.200,225.947 143.200 L 226.800 143.200 226.800 160.200 C 226.800 174.536,226.712 177.200,226.238 177.200 C 225.929 177.200,224.984 177.552,224.138 177.983 C 223.292 178.414,220.710 179.687,218.400 180.812 C 216.090 181.937,214.020 183.033,213.801 183.248 C 213.581 183.463,215.474 182.654,218.007 181.449 C 227.356 177.005,234.294 175.087,242.800 174.594 C 245.110 174.459,247.810 174.192,248.800 173.999 C 249.790 173.806,251.293 173.536,252.141 173.398 C 252.988 173.261,253.594 173.060,253.486 172.953 C 253.379 172.845,251.695 173.036,249.745 173.377 C 247.795 173.718,245.163 173.998,243.896 173.999 L 241.591 174.000 241.696 157.569 L 241.800 141.139 244.000 140.347 C 245.210 139.912,247.010 139.278,248.000 138.939 C 248.990 138.599,249.971 138.159,250.180 137.961 C 250.742 137.427,250.119 137.571,247.381 138.605 M252.293 139.493 C 252.648 140.533,253.001 141.196,253.079 140.964 C 253.223 140.532,252.125 137.600,251.819 137.600 C 251.725 137.600,251.939 138.452,252.293 139.493 M155.226 143.499 C 153.904 147.349,153.853 147.537,154.320 146.800 C 154.876 145.922,156.501 141.168,156.310 140.977 C 156.221 140.887,155.733 142.022,155.226 143.499 M254.250 144.800 C 254.625 146.305,255.534 148.284,255.538 147.600 C 255.539 147.270,255.194 146.280,254.771 145.400 C 254.348 144.520,254.114 144.250,254.250 144.800 M195.400 147.461 C 196.940 148.243,199.100 149.599,200.200 150.474 L 202.200 152.066 200.400 150.388 C 198.820 148.916,193.762 145.966,192.910 146.020 C 192.739 146.030,193.860 146.679,195.400 147.461 M152.491 151.300 C 151.810 153.184,151.904 153.694,152.626 152.030 C 152.953 151.277,153.166 150.499,153.101 150.302 C 153.035 150.105,152.760 150.554,152.491 151.300 M207.831 151.168 C 207.215 151.810,206.808 152.575,206.924 152.868 C 207.090 153.283,207.144 153.273,207.168 152.822 C 207.186 152.504,207.684 151.739,208.275 151.122 C 208.866 150.505,209.260 150.000,209.150 150.000 C 209.040 150.000,208.446 150.526,207.831 151.168 M205.892 154.858 C 205.192 156.078,204.778 189.635,205.442 191.365 C 205.740 192.141,206.402 191.801,206.394 190.876 C 206.389 190.293,206.334 190.283,206.000 190.800 C 205.746 191.192,205.610 185.270,205.606 173.686 C 205.601 157.955,205.673 155.860,206.254 154.973 C 206.614 154.424,206.836 153.902,206.747 153.813 C 206.658 153.724,206.273 154.195,205.892 154.858 M150.646 156.646 C 150.292 157.685,150.072 158.605,150.156 158.690 C 150.241 158.774,150.600 157.993,150.954 156.954 C 151.308 155.915,151.528 154.995,151.444 154.910 C 151.359 154.826,151.000 155.607,150.646 156.646 M261.429 165.200 C 261.576 165.750,261.864 166.470,262.067 166.800 C 262.325 167.217,262.357 167.095,262.171 166.400 C 262.024 165.850,261.736 165.130,261.533 164.800 C 261.275 164.383,261.243 164.505,261.429 165.200 M146.400 169.114 C 146.400 169.684,147.842 170.632,149.200 170.954 C 149.813 171.100,149.658 170.951,148.800 170.568 C 148.030 170.225,147.175 169.653,146.900 169.296 C 146.622 168.936,146.400 168.855,146.400 169.114 M254.800 172.400 C 253.976 172.664,253.941 172.726,254.600 172.754 C 255.040 172.773,255.670 172.613,256.000 172.400 C 256.701 171.947,256.214 171.947,254.800 172.400 M264.027 172.400 C 264.025 172.510,264.377 173.590,264.810 174.800 C 265.358 176.330,265.523 176.574,265.351 175.600 C 265.146 174.430,264.042 171.764,264.027 172.400 M149.826 173.765 C 151.844 174.644,153.126 174.859,151.400 174.029 C 150.520 173.606,149.530 173.253,149.200 173.245 C 148.870 173.238,149.152 173.472,149.826 173.765 M154.600 175.361 C 156.146 175.866,157.250 176.180,161.300 177.265 C 162.966 177.712,163.200 177.906,163.200 178.845 C 163.200 180.251,162.731 180.388,157.667 180.465 L 153.400 180.529 157.200 180.827 C 159.372 180.998,162.885 180.945,165.400 180.704 C 169.059 180.353,170.575 180.396,174.400 180.959 C 181.785 182.046,182.017 182.055,179.200 181.158 C 174.168 179.554,176.449 179.082,181.768 180.626 C 184.805 181.508,184.430 180.966,181.339 180.005 C 177.985 178.963,173.877 178.186,168.600 177.594 C 163.372 177.008,158.687 176.188,156.200 175.423 C 153.777 174.679,152.341 174.623,154.600 175.361 M254.727 175.006 C 254.084 175.649,247.120 176.929,239.400 177.822 C 234.010 178.445,230.229 179.216,227.291 180.291 C 225.087 181.097,225.308 181.330,227.619 180.636 C 232.774 179.087,235.353 179.575,230.400 181.162 C 228.970 181.620,228.430 181.900,229.200 181.785 C 238.768 180.346,239.362 180.307,244.800 180.762 C 248.246 181.050,251.286 181.086,253.200 180.861 L 256.200 180.509 252.200 180.449 C 247.043 180.372,246.400 180.195,246.400 178.851 C 246.400 177.794,248.240 176.820,250.294 176.790 C 251.355 176.774,256.731 174.837,255.767 174.817 C 255.308 174.808,254.841 174.893,254.727 175.006 M143.855 177.000 C 143.378 178.244,145.392 179.941,146.285 179.048 C 146.422 178.912,146.165 178.800,145.716 178.800 C 144.677 178.800,143.912 177.896,144.236 177.051 C 144.373 176.693,144.396 176.400,144.286 176.400 C 144.176 176.400,143.982 176.670,143.855 177.000 M148.833 179.749 C 148.925 179.831,149.900 180.001,151.000 180.128 C 152.349 180.284,152.674 180.249,152.000 180.020 C 151.001 179.680,148.518 179.468,148.833 179.749 M257.400 180.020 C 256.611 180.235,257.022 180.270,258.600 180.123 C 259.920 180.000,261.075 179.832,261.167 179.750 C 261.464 179.482,258.634 179.685,257.400 180.020 M184.800 181.600 C 185.130 181.813,185.670 181.988,186.000 181.988 C 186.533 181.988,186.533 181.945,186.000 181.600 C 185.670 181.387,185.130 181.212,184.800 181.212 C 184.267 181.212,184.267 181.255,184.800 181.600 M223.600 181.600 C 223.067 181.945,223.067 181.988,223.600 181.988 C 223.930 181.988,224.470 181.813,224.800 181.600 C 225.333 181.255,225.333 181.212,224.800 181.212 C 224.470 181.212,223.930 181.387,223.600 181.600 M263.600 181.585 C 263.177 181.862,263.431 181.908,264.462 181.743 C 265.603 181.559,265.967 181.651,266.121 182.162 C 266.284 182.701,266.308 182.691,266.256 182.108 C 266.184 181.297,264.537 180.973,263.600 181.585 M148.400 182.400 C 148.950 182.576,149.850 182.717,150.400 182.713 C 151.298 182.706,151.278 182.674,150.200 182.400 C 148.508 181.969,147.056 181.969,148.400 182.400 M183.409 182.588 C 186.283 183.497,188.006 183.671,185.600 182.810 C 184.390 182.377,183.040 182.035,182.600 182.051 C 182.160 182.066,182.524 182.308,183.409 182.588 M223.800 182.845 C 222.220 183.433,222.092 183.538,223.191 183.343 C 225.499 182.934,227.965 182.077,226.800 182.090 C 226.250 182.095,224.900 182.435,223.800 182.845 M259.400 182.400 C 258.322 182.674,258.302 182.706,259.200 182.713 C 259.750 182.717,260.650 182.576,261.200 182.400 C 262.544 181.969,261.092 181.969,259.400 182.400 M152.400 183.200 C 152.950 183.376,154.030 183.517,154.800 183.514 L 156.200 183.508 154.600 183.177 C 152.463 182.735,150.996 182.750,152.400 183.200 M189.000 183.200 C 189.136 183.420,188.922 183.603,188.524 183.606 C 187.910 183.611,187.891 183.671,188.400 184.000 C 188.730 184.213,189.484 184.391,190.076 184.394 C 190.668 184.397,191.264 184.580,191.400 184.800 C 191.536 185.020,192.007 185.200,192.447 185.200 C 193.610 185.200,193.067 184.614,191.009 183.646 C 188.992 182.698,188.642 182.620,189.000 183.200 M218.612 183.624 C 216.511 184.672,216.003 185.200,217.096 185.200 C 217.567 185.200,218.064 185.020,218.200 184.800 C 218.336 184.580,218.932 184.397,219.524 184.394 C 220.116 184.391,220.870 184.213,221.200 184.000 C 221.709 183.671,221.690 183.611,221.076 183.606 C 220.678 183.603,220.464 183.420,220.600 183.200 C 220.963 182.613,220.398 182.733,218.612 183.624 M254.800 183.200 L 253.400 183.495 254.800 183.507 C 255.570 183.515,256.650 183.376,257.200 183.200 L 258.200 182.880 257.200 182.893 C 256.650 182.900,255.570 183.038,254.800 183.200 M142.893 184.800 C 142.893 185.570,142.975 185.885,143.076 185.500 C 143.176 185.115,143.176 184.485,143.076 184.100 C 142.975 183.715,142.893 184.030,142.893 184.800 M159.200 184.207 C 160.850 184.506,162.245 184.761,162.300 184.775 C 162.355 184.789,162.400 185.305,162.400 185.922 C 162.400 187.247,159.778 187.865,151.800 188.418 C 147.560 188.713,147.606 188.718,153.070 188.562 C 158.315 188.412,160.734 188.117,164.422 187.177 C 168.148 186.227,174.132 185.871,178.368 186.347 C 185.799 187.182,188.966 187.636,190.340 188.064 C 191.293 188.360,191.806 188.354,192.120 188.040 C 192.440 187.720,192.320 187.600,191.680 187.600 C 191.196 187.600,190.800 187.440,190.800 187.243 C 190.800 187.047,190.305 186.769,189.700 186.624 C 189.095 186.480,188.240 186.260,187.800 186.136 C 187.257 185.983,187.128 186.042,187.400 186.321 C 187.620 186.547,188.250 186.824,188.800 186.937 C 190.899 187.366,184.446 186.686,181.400 186.157 C 179.640 185.851,177.615 185.601,176.900 185.601 C 176.185 185.600,175.600 185.393,175.600 185.141 C 175.600 184.593,180.888 184.908,183.737 185.626 C 184.735 185.877,185.788 186.004,186.076 185.907 C 188.352 185.143,176.775 183.856,166.800 183.763 C 156.835 183.671,156.380 183.697,159.200 184.207 M233.000 183.855 C 232.560 183.944,230.134 184.404,227.609 184.878 C 225.085 185.352,223.225 185.808,223.478 185.893 C 223.730 185.977,225.293 185.765,226.951 185.423 C 230.234 184.745,234.400 184.592,234.400 185.149 C 234.400 185.341,233.545 185.597,232.500 185.719 C 231.455 185.840,228.358 186.233,225.617 186.592 C 222.877 186.951,220.222 187.142,219.717 187.015 C 219.210 186.888,218.800 186.967,218.800 187.192 C 218.800 187.417,218.404 187.600,217.920 187.600 C 217.244 187.600,217.149 187.709,217.512 188.072 C 217.856 188.416,218.230 188.429,218.892 188.118 C 223.305 186.049,239.868 186.001,249.077 188.030 C 250.000 188.234,251.620 188.381,252.677 188.357 C 254.317 188.320,254.056 188.222,250.900 187.692 C 247.275 187.082,247.200 187.047,247.200 185.963 C 247.200 184.947,247.371 184.823,249.300 184.449 C 250.455 184.225,251.760 183.963,252.200 183.867 C 252.640 183.771,248.680 183.693,243.400 183.693 C 238.120 183.693,233.440 183.766,233.000 183.855 M266.509 185.200 C 266.509 186.190,266.587 186.595,266.682 186.100 C 266.778 185.605,266.778 184.795,266.682 184.300 C 266.587 183.805,266.509 184.210,266.509 185.200 M208.175 187.300 L 207.000 188.600 208.300 187.425 C 209.015 186.779,209.600 186.194,209.600 186.125 C 209.600 185.816,209.270 186.088,208.175 187.300 M220.800 186.400 L 219.800 186.720 220.876 186.760 C 221.468 186.782,222.064 186.620,222.200 186.400 C 222.481 185.945,222.220 185.945,220.800 186.400 M142.900 187.600 C 143.000 187.969,143.588 188.222,144.431 188.256 C 145.685 188.308,145.699 188.297,144.601 188.120 C 143.942 188.014,143.253 187.719,143.071 187.464 C 142.847 187.151,142.791 187.195,142.900 187.600 M266.400 187.533 C 266.400 187.790,265.905 188.025,265.300 188.054 C 264.290 188.104,264.278 188.124,265.146 188.288 C 266.119 188.473,267.160 187.827,266.673 187.340 C 266.523 187.190,266.400 187.277,266.400 187.533 M256.713 188.695 C 257.876 188.776,259.676 188.776,260.713 188.693 C 261.751 188.611,260.800 188.545,258.600 188.546 C 256.400 188.547,255.551 188.614,256.713 188.695 M173.400 189.077 C 172.300 189.151,168.520 189.593,165.000 190.061 C 161.480 190.528,156.260 191.036,153.400 191.190 L 148.200 191.470 154.700 191.535 C 161.197 191.600,161.200 191.600,161.200 192.520 C 161.200 193.685,160.494 194.400,159.344 194.400 C 158.851 194.400,158.336 194.580,158.200 194.800 C 158.064 195.020,157.558 195.203,157.076 195.206 C 156.594 195.209,155.930 195.405,155.600 195.640 C 154.570 196.374,157.370 195.719,163.400 193.815 C 169.239 191.972,173.871 191.235,180.084 191.160 C 184.626 191.106,182.597 190.493,177.700 190.440 C 173.570 190.395,172.766 189.797,176.300 189.398 C 180.664 188.906,178.900 188.711,173.400 189.077 M181.600 189.617 C 182.810 189.784,184.520 189.915,185.400 189.907 C 186.945 189.894,186.931 189.882,185.000 189.582 C 183.900 189.410,182.190 189.280,181.200 189.291 L 179.400 189.313 181.600 189.617 M202.858 190.100 C 203.382 191.324,204.000 191.559,204.000 190.533 C 204.000 190.167,203.883 189.984,203.740 190.127 C 203.596 190.270,203.233 190.075,202.933 189.694 C 202.461 189.094,202.451 189.149,202.858 190.100 M224.600 189.617 C 223.500 189.777,225.120 189.821,228.200 189.715 C 231.601 189.599,234.193 189.685,234.800 189.936 C 235.602 190.268,235.048 190.366,232.000 190.436 C 229.910 190.483,227.930 190.542,227.600 190.566 C 227.270 190.590,225.689 190.487,224.086 190.336 C 222.088 190.148,220.877 190.215,220.235 190.548 C 219.461 190.950,220.423 191.044,225.780 191.089 C 234.003 191.159,239.504 191.765,243.695 193.062 C 251.584 195.503,253.435 196.008,254.000 195.872 C 254.330 195.793,254.060 195.598,253.400 195.440 C 252.740 195.281,251.887 194.983,251.505 194.776 C 251.123 194.569,250.484 194.400,250.085 194.400 C 249.095 194.400,248.400 193.625,248.400 192.520 C 248.400 191.600,248.403 191.600,254.900 191.535 L 261.400 191.471 255.600 191.194 C 252.410 191.042,248.360 190.704,246.600 190.444 C 244.840 190.184,242.195 189.798,240.723 189.586 C 237.716 189.153,227.657 189.172,224.600 189.617 M185.400 190.366 L 183.400 190.606 185.959 190.903 C 187.366 191.066,188.986 191.199,189.559 191.198 L 190.600 191.195 189.454 190.598 C 188.824 190.269,188.104 190.028,187.854 190.063 C 187.604 190.097,186.500 190.234,185.400 190.366 M265.399 190.680 C 266.058 190.786,266.747 191.081,266.929 191.336 C 267.153 191.649,267.209 191.605,267.100 191.200 C 267.000 190.831,266.412 190.578,265.569 190.544 C 264.315 190.492,264.301 190.503,265.399 190.680 M142.165 194.368 C 142.191 196.291,142.351 196.977,142.800 197.099 C 143.220 197.212,143.257 197.159,142.923 196.921 C 142.660 196.734,142.374 195.505,142.287 194.190 L 142.130 191.800 142.165 194.368 M267.190 195.281 C 267.084 196.316,267.145 197.015,267.326 196.834 C 267.507 196.653,267.593 195.807,267.519 194.953 L 267.383 193.400 267.190 195.281 M151.200 196.400 C 149.796 196.850,151.263 196.865,153.400 196.423 L 155.000 196.092 153.600 196.086 C 152.830 196.083,151.750 196.224,151.200 196.400 M256.200 196.423 C 258.337 196.865,259.804 196.850,258.400 196.400 C 257.850 196.224,256.770 196.083,256.000 196.086 L 254.600 196.092 256.200 196.423 M145.891 197.089 C 146.601 197.177,147.861 197.179,148.691 197.092 C 149.521 197.005,148.940 196.933,147.400 196.931 C 145.860 196.929,145.181 197.000,145.891 197.089 M260.707 197.090 C 261.426 197.179,262.506 197.177,263.107 197.086 C 263.708 196.995,263.120 196.922,261.800 196.924 C 260.480 196.926,259.988 197.001,260.707 197.090 M119.300 221.887 C 119.905 221.978,120.895 221.978,121.500 221.887 C 122.105 221.795,121.610 221.720,120.400 221.720 C 119.190 221.720,118.695 221.795,119.300 221.887 M288.100 221.887 C 288.705 221.978,289.695 221.978,290.300 221.887 C 290.905 221.795,290.410 221.720,289.200 221.720 C 287.990 221.720,287.495 221.795,288.100 221.887 M114.012 225.388 C 112.159 227.251,110.723 228.828,110.821 228.892 C 110.919 228.956,112.519 227.431,114.375 225.504 C 116.232 223.577,117.668 222.000,117.567 222.000 C 117.465 222.000,115.866 223.524,114.012 225.388 M143.800 222.357 C 144.240 222.553,145.995 224.152,147.700 225.911 C 149.405 227.669,150.800 228.973,150.800 228.808 C 150.800 228.255,144.378 222.201,143.684 222.100 C 143.186 222.028,143.217 222.097,143.800 222.357 M164.091 225.308 L 160.800 228.617 160.800 247.508 L 160.800 266.400 166.600 266.400 L 172.400 266.400 172.405 261.100 C 172.408 258.185,172.520 255.391,172.654 254.892 L 172.898 253.983 180.549 254.092 L 188.200 254.200 188.310 260.311 L 188.421 266.422 193.910 266.311 L 199.400 266.200 199.504 247.375 L 199.608 228.549 196.253 225.275 L 192.898 222.000 180.140 222.000 L 167.382 222.000 164.091 225.308 M210.243 222.633 C 209.926 223.459,209.926 264.941,210.243 265.767 C 210.459 266.329,212.248 266.400,226.292 266.400 L 242.098 266.400 245.449 263.129 L 248.800 259.858 248.800 244.200 L 248.800 228.542 245.449 225.271 L 242.098 222.000 226.292 222.000 C 212.248 222.000,210.459 222.071,210.243 222.633 M258.652 222.900 C 258.337 224.075,258.337 264.325,258.652 265.500 C 258.872 266.321,259.110 266.393,261.347 266.324 L 263.800 266.249 261.500 266.104 L 259.200 265.960 259.200 244.196 L 259.200 222.431 262.700 222.298 L 266.200 222.165 262.547 222.082 C 259.063 222.004,258.882 222.042,258.652 222.900 M295.089 225.200 L 298.379 228.600 298.502 234.200 L 298.625 239.800 298.712 234.191 L 298.800 228.582 295.300 225.191 L 291.800 221.800 295.089 225.200 M180.167 223.043 C 180.681 223.240,180.800 223.982,180.800 226.996 C 180.800 231.324,180.962 231.181,176.000 231.201 C 171.752 231.217,171.961 230.841,172.089 238.230 L 172.200 244.600 176.500 244.714 L 180.800 244.827 180.800 248.767 L 180.800 252.708 178.600 252.954 C 177.390 253.089,175.410 253.311,174.200 253.446 L 172.000 253.692 172.000 259.422 C 172.000 266.186,172.502 265.628,166.168 265.902 L 161.200 266.116 161.200 247.472 L 161.200 228.828 164.300 225.815 L 167.400 222.802 173.467 222.801 C 176.804 222.800,179.819 222.909,180.167 223.043 M245.321 225.889 L 248.400 228.978 248.400 244.216 L 248.400 259.455 245.407 262.420 C 241.515 266.275,242.398 266.086,231.700 265.354 L 228.400 265.128 228.400 261.407 C 228.400 257.035,228.219 257.200,233.000 257.200 C 238.092 257.200,237.600 258.591,237.600 244.200 C 237.600 229.857,238.049 231.203,233.267 231.195 C 228.230 231.186,228.400 231.332,228.400 226.983 C 228.400 222.526,227.696 222.908,236.021 222.846 L 242.242 222.800 245.321 225.889 M140.383 233.700 L 142.167 235.600 146.483 235.600 C 150.340 235.600,150.797 235.525,150.768 234.900 C 150.750 234.482,150.656 234.401,150.535 234.700 C 150.392 235.054,149.149 235.200,146.282 235.200 L 142.230 235.200 140.415 233.500 L 138.600 231.800 140.383 233.700 M188.315 237.400 C 188.488 245.156,189.313 244.400,180.672 244.400 C 175.518 244.400,173.218 244.258,172.880 243.920 C 172.359 243.399,172.172 232.761,172.675 232.258 C 172.826 232.107,176.381 232.032,180.575 232.092 L 188.200 232.200 188.315 237.400 M237.000 244.200 L 237.000 256.200 229.200 256.200 L 221.400 256.200 221.294 244.605 C 221.235 238.228,221.276 232.779,221.384 232.496 C 221.538 232.097,223.304 232.007,229.291 232.091 L 237.000 232.200 237.000 244.200 M270.750 239.312 C 270.923 239.483,273.569 239.573,276.632 239.510 L 282.200 239.397 276.319 239.199 C 273.084 239.089,270.578 239.140,270.750 239.312 M129.067 239.467 C 128.698 239.835,128.729 248.709,129.100 248.939 C 129.265 249.042,129.344 246.982,129.276 244.363 L 129.153 239.600 139.743 239.600 C 147.841 239.600,150.381 239.718,150.535 240.100 C 150.656 240.399,150.750 240.318,150.768 239.900 C 150.801 239.180,129.773 238.760,129.067 239.467 M296.047 242.152 C 294.472 243.747,294.061 244.385,294.461 244.616 C 294.757 244.788,294.860 244.775,294.690 244.587 C 294.519 244.400,295.323 243.291,296.476 242.123 C 297.629 240.955,298.483 240.000,298.373 240.000 C 298.263 240.000,297.216 240.968,296.047 242.152 M298.488 254.192 L 298.400 259.783 295.103 263.192 L 291.806 266.600 295.315 263.185 L 298.824 259.771 298.700 254.185 L 298.575 248.600 298.488 254.192 M138.944 252.800 C 138.944 254.890,139.012 255.745,139.094 254.700 C 139.176 253.655,139.176 251.945,139.094 250.900 C 139.012 249.855,138.944 250.710,138.944 252.800 M110.800 259.442 C 110.800 259.649,112.375 261.344,114.300 263.209 L 117.800 266.600 114.400 263.012 C 112.530 261.039,110.955 259.344,110.900 259.245 C 110.845 259.147,110.800 259.236,110.800 259.442 M147.172 262.861 C 145.286 264.808,143.867 266.400,144.018 266.400 C 144.411 266.400,150.800 259.931,150.800 259.533 C 150.800 259.089,151.042 258.867,147.172 262.861 M121.500 266.698 C 123.535 266.771,126.865 266.771,128.900 266.698 C 130.935 266.625,129.270 266.566,125.200 266.566 C 121.130 266.566,119.465 266.625,121.500 266.698 M280.700 266.698 C 282.735 266.771,286.065 266.771,288.100 266.698 C 290.135 266.625,288.470 266.566,284.400 266.566 C 280.330 266.566,278.665 266.625,280.700 266.698 M202.938 368.894 C 203.192 369.056,204.120 369.188,205.000 369.188 C 205.880 369.188,206.808 369.056,207.062 368.894 C 207.316 368.732,206.388 368.600,205.000 368.600 C 203.612 368.600,202.684 368.732,202.938 368.894 " stroke="none" fill="#cd9564" fill-rule="evenodd"></path><path id="path3" d="M157.467 137.867 C 157.320 138.013,157.206 138.418,157.213 138.767 C 157.224 139.312,157.299 139.303,157.758 138.699 C 158.261 138.036,158.346 138.042,159.336 138.821 L 160.382 139.644 160.291 156.581 L 160.200 173.519 161.956 173.759 C 162.922 173.892,164.679 174.000,165.860 174.000 L 168.009 174.000 167.904 157.564 L 167.800 141.128 163.600 139.731 C 161.290 138.962,159.229 138.169,159.020 137.967 C 158.574 137.536,157.844 137.489,157.467 137.867 M250.192 137.949 C 249.976 138.154,248.990 138.599,248.000 138.939 C 247.010 139.278,245.210 139.912,244.000 140.347 L 241.800 141.139 241.696 157.569 L 241.591 174.000 243.740 174.000 C 244.921 174.000,246.678 173.892,247.644 173.759 L 249.400 173.519 249.307 156.459 L 249.213 139.400 250.207 138.681 C 251.304 137.888,251.125 137.695,252.450 141.100 C 253.337 143.379,253.532 143.864,253.941 144.800 L 254.379 145.800 254.144 144.691 C 253.256 140.503,251.198 136.992,250.192 137.949 M156.600 140.400 C 156.450 140.873,156.417 141.350,156.527 141.460 C 156.637 141.570,156.850 141.273,157.000 140.800 C 157.150 140.327,157.183 139.850,157.073 139.740 C 156.963 139.630,156.750 139.927,156.600 140.400 M182.400 160.200 C 182.400 175.577,182.462 177.200,183.046 177.200 C 183.401 177.200,184.346 177.543,185.146 177.962 C 188.222 179.574,192.082 181.251,192.274 181.059 C 192.384 180.949,191.944 180.585,191.295 180.249 L 190.116 179.639 190.126 162.888 L 190.137 146.137 191.168 146.305 C 191.736 146.398,192.963 146.817,193.896 147.237 C 196.156 148.254,196.605 148.179,194.600 147.118 C 192.440 145.976,184.441 143.200,183.309 143.200 L 182.400 143.200 182.400 160.200 M222.400 144.064 C 218.806 145.345,213.172 147.705,213.330 147.864 C 213.411 147.944,214.180 147.713,215.039 147.349 C 215.897 146.985,217.185 146.552,217.900 146.386 L 219.200 146.084 219.200 162.999 C 219.200 178.506,219.144 179.936,218.525 180.174 C 217.242 180.666,210.465 184.840,209.959 185.450 C 209.680 185.786,210.571 185.317,211.941 184.408 C 213.310 183.498,216.268 181.857,218.515 180.760 C 220.762 179.663,223.292 178.414,224.138 177.983 C 224.984 177.552,225.929 177.200,226.238 177.200 C 226.712 177.200,226.800 174.536,226.800 160.200 L 226.800 143.200 225.700 143.240 C 225.095 143.262,223.610 143.633,222.400 144.064 M255.216 148.254 C 255.207 148.504,255.463 149.314,255.784 150.054 C 256.106 150.794,256.376 151.196,256.384 150.946 C 256.393 150.696,256.137 149.886,255.816 149.146 C 255.494 148.406,255.224 148.004,255.216 148.254 M153.400 149.600 C 153.250 150.073,153.217 150.550,153.327 150.660 C 153.437 150.770,153.650 150.473,153.800 150.000 C 153.950 149.527,153.983 149.050,153.873 148.940 C 153.763 148.830,153.550 149.127,153.400 149.600 M200.646 151.181 C 201.112 151.742,201.692 152.560,201.934 153.000 C 202.177 153.440,202.381 153.572,202.388 153.294 C 202.395 153.016,201.815 152.198,201.100 151.476 C 200.385 150.754,200.181 150.621,200.646 151.181 M208.175 151.300 L 207.000 152.600 208.300 151.425 C 209.015 150.779,209.600 150.194,209.600 150.125 C 209.600 149.816,209.270 150.088,208.175 151.300 M202.401 154.224 C 202.401 154.456,202.664 154.996,202.987 155.424 C 203.483 156.079,203.572 158.827,203.556 173.000 C 203.545 182.240,203.446 189.575,203.335 189.300 C 203.224 189.025,202.967 188.800,202.763 188.800 C 202.560 188.800,202.611 189.148,202.877 189.574 C 203.885 191.188,204.000 189.504,204.000 173.186 C 204.000 157.134,203.966 156.364,203.201 155.110 C 202.762 154.389,202.402 153.991,202.401 154.224 M262.400 169.146 C 262.400 169.410,261.995 169.789,261.500 169.988 C 260.891 170.232,260.810 170.357,261.251 170.375 C 261.991 170.403,263.047 169.314,262.657 168.924 C 262.516 168.782,262.400 168.882,262.400 169.146 M154.000 172.132 C 155.615 172.760,159.107 173.373,158.689 172.955 C 158.534 172.801,157.641 172.548,156.704 172.393 C 155.767 172.239,154.460 171.994,153.800 171.850 C 152.739 171.618,152.762 171.651,154.000 172.132 M255.000 172.000 C 254.496 172.217,254.422 172.344,254.800 172.344 C 255.130 172.344,255.760 172.189,256.200 172.000 C 256.704 171.783,256.778 171.656,256.400 171.656 C 256.070 171.656,255.440 171.811,255.000 172.000 M250.800 172.800 C 250.061 173.277,251.124 173.277,253.000 172.800 L 254.200 172.495 252.800 172.453 C 252.030 172.431,251.130 172.587,250.800 172.800 M154.093 175.396 C 154.254 175.574,154.794 175.922,155.293 176.169 C 155.990 176.515,156.229 177.021,156.325 178.359 L 156.451 180.099 153.725 179.868 C 151.997 179.721,151.366 179.762,152.000 179.979 C 153.158 180.374,161.628 180.518,162.567 180.157 C 163.708 179.720,163.368 177.734,162.100 177.429 C 158.512 176.566,155.615 175.775,154.600 175.382 C 154.160 175.212,153.932 175.218,154.093 175.396 M253.000 176.036 C 251.900 176.455,250.682 176.797,250.294 176.798 C 247.174 176.806,244.788 179.475,247.300 180.148 C 248.582 180.491,255.971 180.368,257.400 179.979 C 258.167 179.770,257.626 179.732,255.900 179.873 L 253.200 180.093 253.200 178.618 C 253.200 177.195,253.907 176.000,254.748 176.000 C 254.971 176.000,255.264 175.820,255.400 175.600 C 255.728 175.069,255.375 175.134,253.000 176.036 M265.232 177.467 C 265.214 177.943,264.975 178.424,264.700 178.535 C 264.308 178.693,264.311 178.744,264.713 178.768 C 265.320 178.806,265.761 177.840,265.469 177.113 C 265.356 176.831,265.249 176.990,265.232 177.467 M176.136 179.896 C 176.267 180.108,177.865 180.682,179.687 181.171 C 181.509 181.660,184.175 182.407,185.611 182.830 C 191.222 184.484,190.253 183.400,184.400 181.475 C 180.016 180.034,175.713 179.211,176.136 179.896 M230.000 180.038 C 227.841 180.457,221.156 182.743,220.620 183.244 C 220.017 183.809,221.134 183.672,223.989 182.830 C 225.425 182.407,228.091 181.660,229.913 181.171 C 234.660 179.896,234.719 179.120,230.000 180.038 M192.800 181.379 C 192.800 181.489,193.340 181.859,194.000 182.200 C 194.660 182.541,195.200 182.731,195.200 182.621 C 195.200 182.511,194.660 182.141,194.000 181.800 C 193.340 181.459,192.800 181.269,192.800 181.379 M259.000 182.834 C 258.120 183.022,256.050 183.360,254.400 183.586 C 248.052 184.453,247.200 184.733,247.200 185.956 C 247.200 187.395,252.919 188.446,260.054 188.319 L 264.600 188.238 259.600 188.019 L 254.600 187.800 254.478 185.900 C 254.370 184.214,254.448 184.000,255.172 184.000 C 255.991 184.000,258.927 183.361,260.800 182.776 C 262.113 182.365,261.028 182.401,259.000 182.834 M151.400 183.375 C 152.500 183.699,153.793 183.973,154.273 183.982 C 155.275 184.003,155.673 185.590,155.051 187.088 C 154.708 187.916,154.382 187.986,150.241 188.125 C 147.312 188.223,147.638 188.243,151.200 188.183 C 159.064 188.051,162.400 187.379,162.400 185.926 C 162.400 184.655,162.526 184.700,156.600 183.821 C 149.030 182.697,149.134 182.706,151.400 183.375 M195.600 182.924 C 195.600 183.017,196.365 183.598,197.300 184.215 C 198.235 184.832,198.789 185.080,198.531 184.768 C 198.034 184.167,195.600 182.636,195.600 182.924 M175.600 185.142 C 175.600 185.394,176.185 185.600,176.900 185.601 C 177.615 185.601,179.640 185.851,181.400 186.157 C 184.596 186.712,190.514 187.336,189.000 186.958 C 188.560 186.849,187.840 186.610,187.400 186.429 C 184.871 185.385,175.600 184.375,175.600 185.142 M226.200 185.472 C 224.440 185.799,222.687 186.231,222.305 186.433 C 221.923 186.635,221.113 186.821,220.505 186.846 C 219.897 186.872,219.691 186.970,220.046 187.065 C 220.402 187.160,222.922 186.946,225.646 186.588 C 228.371 186.231,231.455 185.840,232.500 185.719 C 233.545 185.597,234.400 185.341,234.400 185.149 C 234.400 184.621,229.808 184.802,226.200 185.472 M199.200 185.325 C 199.200 185.394,199.785 185.979,200.500 186.625 L 201.800 187.800 200.625 186.500 C 199.530 185.288,199.200 185.016,199.200 185.325 M175.100 189.487 C 171.255 190.069,179.884 190.885,185.200 190.441 C 187.248 190.271,187.097 190.223,183.000 189.755 C 178.508 189.242,177.043 189.192,175.100 189.487 M225.000 190.000 L 222.200 190.259 224.400 190.377 C 229.595 190.656,235.997 190.428,235.000 190.000 C 234.097 189.612,229.198 189.612,225.000 190.000 M142.643 191.433 C 142.509 191.781,142.424 192.546,142.453 193.133 C 142.497 194.024,142.546 193.969,142.754 192.800 L 143.003 191.400 145.801 191.466 C 148.382 191.528,148.460 191.506,146.800 191.196 C 144.005 190.673,142.910 190.736,142.643 191.433 M262.600 191.216 C 261.285 191.465,261.499 191.509,263.800 191.460 L 266.600 191.400 266.840 193.200 C 267.072 194.940,267.082 194.951,267.140 193.533 C 267.255 190.718,266.708 190.439,262.600 191.216 M153.500 192.012 C 154.184 192.288,154.400 192.698,154.400 193.726 C 154.400 194.733,154.170 195.189,153.500 195.512 L 152.600 195.946 153.572 195.973 C 154.561 196.001,156.840 195.385,158.095 194.751 C 158.477 194.558,159.116 194.400,159.515 194.400 C 160.505 194.400,161.200 193.625,161.200 192.520 C 161.200 191.615,161.128 191.600,156.900 191.625 C 153.918 191.643,152.876 191.762,153.500 192.012 M248.400 192.520 C 248.400 193.625,249.095 194.400,250.085 194.400 C 250.484 194.400,251.123 194.558,251.505 194.751 C 252.760 195.385,255.039 196.001,256.028 195.973 L 257.000 195.946 256.100 195.512 C 254.705 194.839,254.835 192.600,256.300 192.065 C 257.156 191.752,256.404 191.656,252.900 191.632 C 248.462 191.600,248.400 191.613,248.400 192.520 M149.000 196.400 L 147.800 196.705 149.000 196.713 C 149.660 196.717,150.650 196.576,151.200 196.400 L 152.200 196.080 151.200 196.087 C 150.650 196.091,149.660 196.232,149.000 196.400 M258.400 196.400 C 258.950 196.576,259.940 196.717,260.600 196.713 L 261.800 196.705 260.600 196.400 C 259.940 196.232,258.950 196.091,258.400 196.087 L 257.400 196.080 258.400 196.400 M265.400 196.800 L 263.800 197.086 265.276 197.143 C 266.088 197.174,266.864 197.020,267.000 196.800 C 267.136 196.580,267.192 196.426,267.124 196.457 C 267.056 196.488,266.280 196.642,265.400 196.800 M116.196 223.685 L 114.600 225.400 116.283 223.835 L 117.966 222.271 131.011 222.524 L 144.055 222.778 147.028 225.868 L 150.000 228.959 150.000 231.879 L 150.000 234.800 146.251 234.800 L 142.501 234.800 140.751 233.195 L 139.000 231.590 130.800 231.695 L 122.600 231.800 122.600 244.200 L 122.600 256.600 131.000 256.600 L 139.400 256.600 139.516 253.036 C 139.663 248.563,139.740 248.630,134.586 248.758 C 131.529 248.834,130.180 248.716,129.714 248.332 C 129.169 247.882,129.100 247.893,129.268 248.400 C 129.426 248.881,130.430 249.022,134.333 249.112 L 139.200 249.225 139.200 252.812 L 139.200 256.400 131.000 256.400 L 122.800 256.400 122.800 244.200 L 122.800 232.000 130.919 232.000 L 139.038 232.000 140.600 233.600 L 142.162 235.200 146.238 235.200 C 150.917 235.200,150.800 235.295,150.800 231.512 L 150.800 229.089 147.418 225.644 L 144.035 222.200 130.914 222.085 L 117.792 221.970 116.196 223.685 M262.700 222.298 L 259.200 222.431 259.200 244.156 L 259.200 265.881 262.500 266.138 C 264.315 266.280,271.657 266.396,278.815 266.398 L 291.830 266.400 293.815 264.300 L 295.800 262.200 293.786 264.100 L 291.773 266.000 284.151 266.000 C 279.959 266.000,272.720 265.881,268.064 265.736 L 259.600 265.473 259.600 244.201 L 259.600 222.928 269.865 222.664 C 275.511 222.519,282.752 222.400,285.957 222.400 L 291.783 222.400 295.192 225.700 L 298.600 229.000 295.209 225.500 L 291.818 222.000 279.009 222.082 C 271.964 222.127,264.625 222.225,262.700 222.298 M164.300 225.815 L 161.200 228.828 161.200 247.472 L 161.200 266.116 166.168 265.902 C 172.502 265.628,172.000 266.186,172.000 259.422 L 172.000 253.692 174.200 253.446 C 175.410 253.311,177.390 253.089,178.600 252.954 L 180.800 252.708 180.800 248.767 L 180.800 244.827 176.500 244.714 L 172.200 244.600 172.089 238.230 C 171.961 230.841,171.752 231.217,176.000 231.201 C 180.962 231.181,180.800 231.324,180.800 226.996 C 180.800 222.492,181.337 222.800,173.467 222.801 L 167.400 222.802 164.300 225.815 M229.100 223.076 C 228.497 223.233,228.400 223.772,228.400 226.983 C 228.400 231.332,228.230 231.186,233.267 231.195 C 238.049 231.203,237.600 229.857,237.600 244.200 C 237.600 258.591,238.092 257.200,233.000 257.200 C 228.219 257.200,228.400 257.035,228.400 261.407 L 228.400 265.128 231.700 265.354 C 242.398 266.086,241.515 266.275,245.407 262.420 L 248.400 259.455 248.400 244.216 L 248.400 228.978 245.321 225.889 L 242.242 222.800 236.021 222.846 C 232.600 222.872,229.485 222.975,229.100 223.076 M110.981 244.200 C 110.981 252.560,111.034 256.037,111.099 251.926 C 111.164 247.816,111.164 240.976,111.100 236.726 C 111.035 232.477,110.982 235.840,110.981 244.200 M270.171 232.132 C 270.059 232.424,270.019 234.269,270.083 236.232 L 270.200 239.800 274.000 239.833 L 277.800 239.865 274.200 239.633 L 270.600 239.400 270.485 235.708 L 270.370 232.017 278.485 231.900 L 286.600 231.782 278.487 231.691 C 272.044 231.619,270.333 231.709,270.171 232.132 M286.881 235.481 L 286.800 239.162 284.300 239.304 L 281.800 239.446 284.313 239.523 C 287.313 239.615,287.280 239.667,287.099 235.167 L 286.963 231.800 286.881 235.481 M140.900 239.900 L 150.000 240.015 150.000 249.817 L 150.000 259.619 147.053 262.664 L 144.105 265.708 131.025 265.912 L 117.945 266.116 115.872 264.158 L 113.800 262.200 115.785 264.300 L 117.770 266.400 130.761 266.400 L 143.751 266.400 147.276 262.876 L 150.800 259.351 150.800 250.108 C 150.800 245.025,150.691 240.581,150.557 240.233 C 150.344 239.677,149.184 239.611,141.057 239.692 L 131.800 239.784 140.900 239.900 M295.887 241.912 L 293.599 244.224 296.100 246.608 L 298.600 248.992 296.304 246.604 L 294.007 244.216 296.291 241.908 C 297.547 240.639,298.485 239.600,298.375 239.600 C 298.265 239.600,297.145 240.640,295.887 241.912 M270.521 249.007 C 270.103 249.314,269.995 250.298,270.083 253.007 L 270.200 256.600 278.300 256.613 L 286.401 256.625 278.400 256.504 L 270.400 256.383 270.400 252.792 L 270.400 249.200 278.585 249.200 L 286.770 249.200 286.902 252.900 L 287.034 256.600 287.117 252.887 C 287.177 250.216,287.060 249.126,286.700 248.999 C 285.587 248.608,271.056 248.615,270.521 249.007 M296.975 260.900 L 295.800 262.200 297.100 261.025 C 297.815 260.379,298.400 259.794,298.400 259.725 C 298.400 259.416,298.070 259.688,296.975 260.900 " stroke="none" fill="#bc8457" fill-rule="evenodd"></path></g></svg>